# xmcd
#
# Track frame offsets: 
#        150
#        12382
#        30416
#        43019
#        53877
#        68522
#        88756
#        102729
#        121908
#        133997
#        147082
#        160738
#        198389
#
# Disc length: 2838 seconds
#
# Revision: 8
# Processed by: cddbd v1.5.2PL0 Copyright (c) Steve Scherf et al.
# Submitted via: ExactAudioCopyFreeDBPlugin 1.0
#
DISCID=b30b140d
DTITLE=The Beatles - 1968 - The White Album Cd 2
DYEAR=1968
DGENRE=Rock
TTITLE0=Birthday
TTITLE1=Yer Blues
TTITLE2=Mother Nature's Son
TTITLE3=Everybody's Got Something To Hide Except Me and My Monkey
TTITLE4=Sexy Sadie
TTITLE5=Helter Skelter
TTITLE6=Long, Long, Long
TTITLE7=Revolution I
TTITLE8=Honey Pie
TTITLE9=Savoy Truffle
TTITLE10=Cry Baby Cry
TTITLE11=Revolution 9
TTITLE12=Good Night
EXTD=
EXTT0=
EXTT1=
EXTT2=
EXTT3=
EXTT4=
EXTT5=
EXTT6=
EXTT7=
EXTT8=
EXTT9=
EXTT10=
EXTT11=
EXTT12=
PLAYORDER=
